<svg width="262" height="38" viewBox="0 0 262 38" fill="none" xmlns="http://www.w3.org/2000/svg">
<path d="M61.584 26.168C60.352 26.168 59.248 25.968 58.272 25.568C57.296 25.168 56.512 24.576 55.92 23.792C55.344 23.008 55.04 22.064 55.008 20.96H59.376C59.44 21.584 59.656 22.064 60.024 22.4C60.392 22.72 60.872 22.88 61.464 22.88C62.072 22.88 62.552 22.744 62.904 22.472C63.256 22.184 63.432 21.792 63.432 21.296C63.432 20.88 63.288 20.536 63 20.264C62.728 19.992 62.384 19.768 61.968 19.592C61.568 19.416 60.992 19.216 60.24 18.992C59.152 18.656 58.264 18.32 57.576 17.984C56.888 17.648 56.296 17.152 55.8 16.496C55.304 15.84 55.056 14.984 55.056 13.928C55.056 12.36 55.624 11.136 56.76 10.256C57.896 9.36 59.376 8.912 61.2 8.912C63.056 8.912 64.552 9.36 65.688 10.256C66.824 11.136 67.432 12.368 67.512 13.952H63.072C63.04 13.408 62.84 12.984 62.472 12.68C62.104 12.36 61.632 12.2 61.056 12.2C60.56 12.2 60.16 12.336 59.856 12.608C59.552 12.864 59.4 13.24 59.4 13.736C59.4 14.28 59.656 14.704 60.168 15.008C60.68 15.312 61.48 15.64 62.568 15.992C63.656 16.36 64.536 16.712 65.208 17.048C65.896 17.384 66.488 17.872 66.984 18.512C67.48 19.152 67.728 19.976 67.728 20.984C67.728 21.944 67.48 22.816 66.984 23.6C66.504 24.384 65.8 25.008 64.872 25.472C63.944 25.936 62.848 26.168 61.584 26.168ZM72.3176 11.216C71.5976 11.216 71.0056 11.008 70.5416 10.592C70.0936 10.16 69.8696 9.632 69.8696 9.008C69.8696 8.368 70.0936 7.84 70.5416 7.424C71.0056 6.992 71.5976 6.776 72.3176 6.776C73.0216 6.776 73.5976 6.992 74.0456 7.424C74.5096 7.84 74.7416 8.368 74.7416 9.008C74.7416 9.632 74.5096 10.16 74.0456 10.592C73.5976 11.008 73.0216 11.216 72.3176 11.216ZM74.3576 12.608V26H70.2536V12.608H74.3576ZM94.4198 12.464C96.0838 12.464 97.4038 12.968 98.3798 13.976C99.3718 14.984 99.8678 16.384 99.8678 18.176V26H95.7878V18.728C95.7878 17.864 95.5558 17.2 95.0918 16.736C94.6438 16.256 94.0198 16.016 93.2198 16.016C92.4198 16.016 91.7878 16.256 91.3238 16.736C90.8758 17.2 90.6518 17.864 90.6518 18.728V26H86.5718V18.728C86.5718 17.864 86.3398 17.2 85.8758 16.736C85.4278 16.256 84.8038 16.016 84.0038 16.016C83.2038 16.016 82.5718 16.256 82.1078 16.736C81.6598 17.2 81.4358 17.864 81.4358 18.728V26H77.3318V12.608H81.4358V14.288C81.8518 13.728 82.3958 13.288 83.0678 12.968C83.7398 12.632 84.4998 12.464 85.3478 12.464C86.3558 12.464 87.2518 12.68 88.0358 13.112C88.8358 13.544 89.4598 14.16 89.9078 14.96C90.3718 14.224 91.0038 13.624 91.8038 13.16C92.6038 12.696 93.4758 12.464 94.4198 12.464ZM106.842 14.504C107.242 13.88 107.794 13.376 108.498 12.992C109.202 12.608 110.026 12.416 110.97 12.416C112.074 12.416 113.074 12.696 113.97 13.256C114.866 13.816 115.57 14.616 116.082 15.656C116.61 16.696 116.874 17.904 116.874 19.28C116.874 20.656 116.61 21.872 116.082 22.928C115.57 23.968 114.866 24.776 113.97 25.352C113.074 25.912 112.074 26.192 110.97 26.192C110.042 26.192 109.218 26 108.498 25.616C107.794 25.232 107.242 24.736 106.842 24.128V32.384H102.738V12.608H106.842V14.504ZM112.698 19.28C112.698 18.256 112.41 17.456 111.834 16.88C111.274 16.288 110.578 15.992 109.746 15.992C108.93 15.992 108.234 16.288 107.658 16.88C107.098 17.472 106.818 18.28 106.818 19.304C106.818 20.328 107.098 21.136 107.658 21.728C108.234 22.32 108.93 22.616 109.746 22.616C110.562 22.616 111.258 22.32 111.834 21.728C112.41 21.12 112.698 20.304 112.698 19.28ZM123.131 8.24V26H119.027V8.24H123.131ZM138.729 19.088C138.729 19.472 138.705 19.872 138.657 20.288H129.369C129.433 21.12 129.697 21.76 130.161 22.208C130.641 22.64 131.225 22.856 131.913 22.856C132.937 22.856 133.649 22.424 134.049 21.56H138.417C138.193 22.44 137.785 23.232 137.193 23.936C136.617 24.64 135.889 25.192 135.009 25.592C134.129 25.992 133.145 26.192 132.057 26.192C130.745 26.192 129.577 25.912 128.553 25.352C127.529 24.792 126.729 23.992 126.153 22.952C125.577 21.912 125.289 20.696 125.289 19.304C125.289 17.912 125.569 16.696 126.129 15.656C126.705 14.616 127.505 13.816 128.529 13.256C129.553 12.696 130.729 12.416 132.057 12.416C133.353 12.416 134.505 12.688 135.513 13.232C136.521 13.776 137.305 14.552 137.865 15.56C138.441 16.568 138.729 17.744 138.729 19.088ZM134.529 18.008C134.529 17.304 134.289 16.744 133.809 16.328C133.329 15.912 132.729 15.704 132.009 15.704C131.321 15.704 130.737 15.904 130.257 16.304C129.793 16.704 129.505 17.272 129.393 18.008H134.529ZM156.468 23.024H150.18L149.172 26H144.876L150.972 9.152H155.724L161.82 26H157.476L156.468 23.024ZM155.412 19.856L153.324 13.688L151.26 19.856H155.412ZM171.836 12.464C173.404 12.464 174.652 12.976 175.58 14C176.524 15.008 176.996 16.4 176.996 18.176V26H172.916V18.728C172.916 17.832 172.684 17.136 172.22 16.64C171.756 16.144 171.132 15.896 170.348 15.896C169.564 15.896 168.94 16.144 168.476 16.64C168.012 17.136 167.78 17.832 167.78 18.728V26H163.676V12.608H167.78V14.384C168.196 13.792 168.756 13.328 169.46 12.992C170.164 12.64 170.956 12.464 171.836 12.464ZM179.031 19.28C179.031 17.904 179.287 16.696 179.799 15.656C180.327 14.616 181.039 13.816 181.935 13.256C182.831 12.696 183.831 12.416 184.935 12.416C185.879 12.416 186.703 12.608 187.407 12.992C188.127 13.376 188.679 13.88 189.063 14.504V12.608H193.167V26H189.063V24.104C188.663 24.728 188.103 25.232 187.383 25.616C186.679 26 185.855 26.192 184.911 26.192C183.823 26.192 182.831 25.912 181.935 25.352C181.039 24.776 180.327 23.968 179.799 22.928C179.287 21.872 179.031 20.656 179.031 19.28ZM189.063 19.304C189.063 18.28 188.775 17.472 188.199 16.88C187.639 16.288 186.951 15.992 186.135 15.992C185.319 15.992 184.623 16.288 184.047 16.88C183.487 17.456 183.207 18.256 183.207 19.28C183.207 20.304 183.487 21.12 184.047 21.728C184.623 22.32 185.319 22.616 186.135 22.616C186.951 22.616 187.639 22.32 188.199 21.728C188.775 21.136 189.063 20.328 189.063 19.304ZM200.24 8.24V26H196.136V8.24H200.24ZM216.895 12.608L208.495 32.36H204.079L207.151 25.544L201.703 12.608H206.287L209.383 20.984L212.455 12.608H216.895ZM225.843 22.52V26H223.755C222.267 26 221.107 25.64 220.275 24.92C219.443 24.184 219.027 22.992 219.027 21.344V16.016H217.395V12.608H219.027V9.344H223.131V12.608H225.819V16.016H223.131V21.392C223.131 21.792 223.227 22.08 223.419 22.256C223.611 22.432 223.931 22.52 224.379 22.52H225.843ZM230.193 11.216C229.473 11.216 228.881 11.008 228.417 10.592C227.969 10.16 227.745 9.632 227.745 9.008C227.745 8.368 227.969 7.84 228.417 7.424C228.881 6.992 229.473 6.776 230.193 6.776C230.897 6.776 231.473 6.992 231.921 7.424C232.385 7.84 232.617 8.368 232.617 9.008C232.617 9.632 232.385 10.16 231.921 10.592C231.473 11.008 230.897 11.216 230.193 11.216ZM232.233 12.608V26H228.129V12.608H232.233ZM234.391 19.304C234.391 17.912 234.671 16.696 235.231 15.656C235.807 14.616 236.599 13.816 237.607 13.256C238.631 12.696 239.799 12.416 241.111 12.416C242.791 12.416 244.191 12.856 245.311 13.736C246.447 14.616 247.191 15.856 247.543 17.456H243.175C242.807 16.432 242.095 15.92 241.039 15.92C240.287 15.92 239.687 16.216 239.239 16.808C238.791 17.384 238.567 18.216 238.567 19.304C238.567 20.392 238.791 21.232 239.239 21.824C239.687 22.4 240.287 22.688 241.039 22.688C242.095 22.688 242.807 22.176 243.175 21.152H247.543C247.191 22.72 246.447 23.952 245.311 24.848C244.175 25.744 242.775 26.192 241.111 26.192C239.799 26.192 238.631 25.912 237.607 25.352C236.599 24.792 235.807 23.992 235.231 22.952C234.671 21.912 234.391 20.696 234.391 19.304ZM255.186 26.192C254.018 26.192 252.978 25.992 252.066 25.592C251.154 25.192 250.434 24.648 249.906 23.96C249.378 23.256 249.082 22.472 249.018 21.608H253.074C253.122 22.072 253.338 22.448 253.722 22.736C254.106 23.024 254.578 23.168 255.138 23.168C255.65 23.168 256.042 23.072 256.314 22.88C256.602 22.672 256.746 22.408 256.746 22.088C256.746 21.704 256.546 21.424 256.146 21.248C255.746 21.056 255.098 20.848 254.202 20.624C253.242 20.4 252.442 20.168 251.802 19.928C251.162 19.672 250.61 19.28 250.146 18.752C249.682 18.208 249.45 17.48 249.45 16.568C249.45 15.8 249.658 15.104 250.074 14.48C250.506 13.84 251.13 13.336 251.946 12.968C252.778 12.6 253.762 12.416 254.898 12.416C256.578 12.416 257.898 12.832 258.858 13.664C259.834 14.496 260.394 15.6 260.538 16.976H256.746C256.682 16.512 256.474 16.144 256.122 15.872C255.786 15.6 255.338 15.464 254.778 15.464C254.298 15.464 253.93 15.56 253.674 15.752C253.418 15.928 253.29 16.176 253.29 16.496C253.29 16.88 253.49 17.168 253.89 17.36C254.306 17.552 254.946 17.744 255.81 17.936C256.802 18.192 257.61 18.448 258.234 18.704C258.858 18.944 259.402 19.344 259.866 19.904C260.346 20.448 260.594 21.184 260.61 22.112C260.61 22.896 260.386 23.6 259.938 24.224C259.506 24.832 258.874 25.312 258.042 25.664C257.226 26.016 256.274 26.192 255.186 26.192Z" fill="white"/>
<g clip-path="url(#clip0_4_55)">
<path d="M5.54175 29.2758L15.0417 19.76L21.3751 26.0933L34.8334 10.9567L32.6009 8.72418L21.3751 21.3433L15.0417 15.01L3.16675 26.9008L5.54175 29.2758Z" fill="white"/>
</g>
<defs>
<clipPath id="clip0_4_55">
<rect width="38" height="38" fill="white"/>
</clipPath>
</defs>
</svg>
